<?xml version="1.0" encoding="UTF-8" standalone="no"?>
<!DOCTYPE svg PUBLIC "-//W3C//DTD SVG 1.1//EN" "http://www.w3.org/Graphics/SVG/1.1/DTD/svg11.dtd">
<svg width="100%" height="100%" viewBox="0 0 1860 1972" version="1.1" xmlns="http://www.w3.org/2000/svg" xmlns:xlink="http://www.w3.org/1999/xlink" xml:space="preserve" xmlns:serif="http://www.serif.com/" style="fill-rule:evenodd;clip-rule:evenodd;stroke-linejoin:round;stroke-miterlimit:2;">
    <g transform="matrix(1,0,0,1,-530.186,-13.1571)">
        <g transform="matrix(1.92686,0,0,1.92686,-275.244,-927.924)">
            <g>
                <g>
                    <g>
                        <g>
                            <path d="M868.1,1499.3C800.8,1473.6 737.9,1434.9 681.1,1384.1C626.8,1335.5 579.2,1276.9 539.7,1209.9C500.7,1143.8 470.4,1071.1 449.8,993.8C428.7,915 418,833 418,750C418,707.7 420.9,664.9 426.5,622.8L440.8,516L543.7,548.2C581.4,560 620.6,566 660.3,566C728,566 795.5,548 855.6,513.9L900.5,488.4L945.4,513.9C946.1,514.3 946.7,514.6 947.4,515L947.6,515.1C948.5,515.6 949.5,516.1 950.4,516.6C1009.2,548.9 1074.9,565.9 1140.6,565.9C1180.3,565.9 1219.5,559.9 1257.2,548.1L1360.1,515.9L1374.5,622.7C1380.2,664.8 1383,707.6 1383,749.9C1383,832.1 1372.5,913.4 1351.8,991.6C1331.5,1068.3 1301.7,1140.5 1263.4,1206.2C1224.6,1272.8 1177.8,1331.2 1124.3,1379.9C1068.5,1430.8 1006.6,1469.9 940.3,1496.2L938.7,1496.8C936.8,1497.6 934.9,1498.3 932.9,1499.1L900.5,1511.4L868.1,1499.3Z" style="fill:rgb(198,196,196);fill-rule:nonzero;"/>
                            <path d="M889.7,1442.7C829.4,1419.7 772.8,1384.8 721.5,1338.9C671.8,1294.4 628.2,1240.7 591.8,1179.1C555.6,1117.8 527.5,1050.1 508.2,978.1C488.5,904.4 478.5,827.7 478.5,750C478.5,710.4 481.2,670.3 486.5,630.8L491.3,595.2L525.6,605.9C569.1,619.5 614.5,626.5 660.3,626.5C738.5,626.5 816.3,605.8 885.5,566.5L900.5,558L915.5,566.5C916.6,567.1 917.7,567.7 918.9,568.3C919.7,568.7 920.5,569.2 921.4,569.6C989.1,606.8 1064.9,626.4 1140.7,626.4C1186.6,626.4 1231.9,619.5 1275.4,605.8L1309.7,595.1L1314.5,630.7C1319.8,670.1 1322.5,710.2 1322.5,749.9C1322.5,826.9 1312.7,903 1293.3,976.1C1274.4,1047.5 1246.7,1114.7 1211.1,1175.7C1175.4,1237 1132.4,1290.6 1083.5,1335.2C1033.1,1381.1 977.4,1416.4 917.9,1440L916.2,1440.7C914.6,1441.4 912.9,1442 911.3,1442.6L900.5,1446.7L889.7,1442.7Z" style="fill:rgb(242,242,242);fill-rule:nonzero;"/>
                            <path d="M1284.3,634.9C1237.8,649.5 1189.6,656.8 1140.5,656.8C1059,656.8 978.8,635.9 906.6,596.3C904.5,595.2 902.5,594.1 900.4,592.9C826.6,634.8 744.1,656.8 660.3,656.8C611.2,656.8 563,649.4 516.5,634.9C511.4,673.1 508.8,711.6 508.8,750C508.8,1055.5 669.1,1326.2 900.4,1414.4C902.5,1413.6 904.5,1412.8 906.6,1412C1134.5,1321.4 1292,1052.8 1292,750.1C1292,711.6 1289.4,673 1284.3,634.9Z" style="fill:rgb(242,242,242);fill-rule:nonzero;"/>
                        </g>
                    </g>
                </g>
                <g>
                    <path d="M991.4,902.4L986.1,899.6C986.5,890.7 978.2,880.7 964.8,875C948.2,868 929.9,870.3 924,880.3C918.1,890.3 926.8,904 943.4,911.1C953.1,915.2 963.5,916.1 971.5,914.1L982,919.8C988.9,923.5 992.6,929.3 992.2,935.7C991.8,942.4 986.9,948.2 979.1,951.2L909.1,978.1C910.8,861.7 912.1,770.6 912.3,753.9C922.6,749.3 929.8,739 929.8,727C929.8,710.8 916.7,697.7 900.5,697.7C884.3,697.7 871.2,710.8 871.2,727C871.2,738.9 878.2,749.1 888.4,753.7C888.6,769.9 889.9,860.8 891.6,977.2L824,951.2C816.2,948.2 811.3,942.4 810.9,935.7C810.5,929.3 814.2,923.5 821.1,919.8L831.6,914.1C839.7,916.1 850,915.2 859.7,911.1C876.3,904.1 885,890.3 879.1,880.3C873.2,870.3 854.9,868 838.3,875C824.9,880.7 816.6,890.7 817,899.6L811.7,902.4C804.9,906.1 799.4,911.2 795.8,917.3C792.3,923.3 790.7,930 791.1,936.8C792,951.2 801.9,963.7 816.8,969.4L874.1,991.4L843.8,1003.1C828.8,1008.9 819,1021.4 818.1,1035.7C817.7,1042.5 819.3,1049.2 822.8,1055.2C826.4,1061.3 831.9,1066.5 838.7,1070.1L880.7,1092.6L853,1107.5C840.2,1114.4 832.5,1126.4 832.4,1139.7C832.3,1152.9 839.8,1165 852.5,1172L881.2,1187.8L874.1,1191.7C861.2,1198.8 853.7,1211.1 854,1224.5C854.3,1238 862.4,1250.1 875.7,1256.8L879.7,1258.8L877.8,1259.7C869.5,1263.9 862.9,1270.4 859.3,1278.2C855.5,1286.3 855,1295.4 858,1303.8L862.4,1316.5C863.8,1320.6 867.6,1323.1 871.7,1323.1C872.8,1323.1 873.9,1322.9 874.9,1322.6C880,1320.8 882.7,1315.2 881,1310.1L876.6,1297.4C874,1289.8 878,1281.7 886.7,1277.4L896,1272.7C896.2,1289.8 896.5,1306.6 896.7,1323.1C896.7,1325.2 898.4,1326.8 900.5,1326.8C902.6,1326.8 904.3,1325.1 904.3,1323.1C904.5,1306.2 904.8,1289 905,1271.5L916.7,1277.3C925.4,1281.6 929.4,1289.7 926.8,1297.3L922.4,1310C920.6,1315.1 923.3,1320.7 928.5,1322.5C929.6,1322.9 930.7,1323 931.7,1323C935.8,1323 939.6,1320.4 941,1316.4L945.4,1303.7C948.3,1295.3 947.8,1286.2 944.1,1278.1C940.5,1270.3 933.9,1263.8 925.6,1259.6L923.7,1258.7L927.7,1256.7C941,1250 949.1,1238 949.4,1224.4C949.7,1211 942.1,1198.7 929.3,1191.6L922.2,1187.7L950.9,1171.9C963.6,1164.9 971.1,1152.8 971,1139.6C970.9,1126.3 963.2,1114.3 950.4,1107.4L922.7,1092.5L964.7,1070C971.5,1066.3 977,1061.2 980.6,1055.1C984.1,1049.1 985.7,1042.4 985.3,1035.6C984.4,1021.2 974.5,1008.7 959.6,1003L929.3,991.3L986.6,969.3C1001.6,963.5 1011.4,951 1012.3,936.7C1012.7,929.9 1011.1,923.2 1007.6,917.2C1003.7,911.2 998.2,906.1 991.4,902.4ZM837.7,1037C838.1,1030.3 843,1024.5 850.8,1021.5L891.9,1005.7C892.2,1028.8 892.6,1052.7 892.9,1077.1L847.8,1052.9C841.1,1049.2 837.3,1043.4 837.7,1037ZM852,1140C852,1134 855.8,1128.5 862.2,1125.1L893.4,1108.4C893.7,1129.8 894,1151.3 894.3,1172.9L861.9,1155C855.6,1151.4 852,1145.9 852,1140ZM873.6,1224.3C873.5,1218.2 877.1,1212.7 883.6,1209.1L894.9,1202.9C895.1,1217 895.3,1231 895.5,1244.9L884.5,1239.4C877.6,1236 873.7,1230.5 873.6,1224.3ZM929.5,1224.3C929.4,1230.5 925.4,1236 918.6,1239.4L905.2,1246.1C905.4,1231.4 905.6,1216.5 905.8,1201.6L919.4,1209.1C926,1212.7 929.6,1218.2 929.5,1224.3ZM951,1140C951,1146 947.4,1151.4 941,1155L906.2,1174.2C906.5,1151.8 906.8,1129.3 907.2,1107.1L940.7,1125.1C947.3,1128.5 951,1133.9 951,1140ZM965.3,1037C965.7,1043.4 962,1049.2 955.1,1052.9L907.7,1078.3C908.1,1053.2 908.4,1028.6 908.8,1004.8L952.2,1021.5C960,1024.5 964.9,1030.3 965.3,1037Z" style="fill:rgb(193,191,191);fill-rule:nonzero;"/>
                    <path d="M1065,777.1C1042.9,761.7 1012.3,734.1 1000.7,726.2C978.5,711.2 969.6,735.4 959.1,746.9C944.3,763 929.7,766.7 922.5,766.8L922.5,857.7C930.7,855.3 938,853 945.4,851.1C953,849.1 962.9,861.6 991.3,850.6C1005.4,845.1 1017.5,861.1 1044.9,848.8C1055.4,844 1080,859.4 1108,842.7C1121.5,834.7 1147.2,850.1 1173.9,812.6C1159.3,809.9 1122.3,817.1 1065,777.1Z" style="fill:rgb(193,191,191);fill-rule:nonzero;"/>
                    <path d="M855.4,851.1C862.8,853.1 870.2,855.3 878.3,857.7L878.3,766.8C871.1,766.7 856.6,763 841.7,746.9C831.1,735.4 822.3,711.2 800.1,726.2C788.5,734.1 757.9,761.7 735.8,777.1C678.5,817.1 641.5,809.8 626.9,812.6C653.5,850.1 679.2,834.6 692.8,842.7C720.8,859.4 745.4,844 755.9,848.8C783.3,861.2 795.4,845.2 809.5,850.6C837.9,861.6 847.9,849.1 855.4,851.1Z" style="fill:rgb(193,191,191);fill-rule:nonzero;"/>
                </g>
            </g>
        </g>
    </g>
</svg>
